<svg width="283" height="90" viewBox="0 0 283 90" fill="white" xmlns="http://www.w3.org/2000/svg">
<path d="M5.1274 76.5667V84H3.71436V76.5667H1.17088V75.3509H7.67088V76.5667H5.1274ZM18.8145 75.3509V84H17.3949V80.1026H13.4121V84H11.999V75.3509H13.4121V78.8868H17.3949V75.3509H18.8145ZM28.9787 82.7973V84H24.0889V75.3509H28.9787V76.547H25.5019V78.8999H28.7618V80.0829H25.5019V82.7973H28.9787ZM43.1925 80.0698H41.7597V82.8104H43.2582C43.8585 82.8104 44.3076 82.6965 44.6056 82.4687C44.9035 82.2364 45.0525 81.8881 45.0525 81.4237C45.0525 80.9548 44.8991 80.6131 44.5924 80.3984C44.2857 80.1793 43.8191 80.0698 43.1925 80.0698ZM41.7597 76.5339V78.9262H43.1202C43.7161 78.9262 44.1477 78.832 44.415 78.6436C44.6866 78.4508 44.8224 78.1419 44.8224 77.7169C44.8224 77.2919 44.6757 76.9896 44.3821 76.8099C44.0929 76.6259 43.6263 76.5339 42.9822 76.5339H41.7597ZM40.3467 84V75.3509H42.9099C44.0973 75.3509 44.9561 75.5261 45.4862 75.8766C46.0208 76.2228 46.2881 76.7705 46.2881 77.5197C46.2881 78.028 46.1566 78.4486 45.8937 78.7816C45.6308 79.1146 45.2584 79.3249 44.7764 79.4125V79.4717C45.3767 79.5856 45.8214 79.8113 46.1106 80.1486C46.3998 80.4816 46.5444 80.9373 46.5444 81.5157C46.5444 82.2956 46.2727 82.9046 45.7294 83.3428C45.1861 83.7809 44.4325 84 43.4685 84H40.3467ZM56.2345 82.7973V84H51.3448V75.3509H56.2345V76.547H52.7578V78.8999H56.0177V80.0829H52.7578V82.7973H56.2345ZM65.2322 79.8595C65.8062 80.2932 66.0932 80.8935 66.0932 81.6603C66.0932 82.4226 65.8171 83.0229 65.265 83.4611C64.713 83.8992 63.9462 84.1183 62.9647 84.1183C61.9833 84.1183 61.1815 83.9671 60.5593 83.6648V82.3241C61.4005 82.7228 62.233 82.9221 63.0568 82.9221C63.6044 82.9221 64.0141 82.8192 64.2858 82.6132C64.5574 82.4029 64.6933 82.1247 64.6933 81.7786C64.6933 81.4324 64.5728 81.1498 64.3318 80.9307C64.0908 80.7073 63.5782 80.4378 62.7939 80.1223C62.0096 79.8025 61.4575 79.4366 61.1376 79.0248C60.8178 78.6129 60.6579 78.1222 60.6579 77.5526C60.6579 76.8296 60.9142 76.2622 61.4268 75.8504C61.9438 75.4341 62.623 75.226 63.4642 75.226C64.3055 75.226 65.1402 75.4078 65.9683 75.7715L65.5148 76.9282C64.7393 76.604 64.0536 76.4419 63.4577 76.4419C63.0107 76.4419 62.6668 76.5404 62.4258 76.7376C62.1848 76.9304 62.0643 77.1933 62.0643 77.5263C62.0643 77.7541 62.1103 77.9491 62.2024 78.1112C62.3075 78.2777 62.4652 78.4289 62.6756 78.5647C62.8903 78.7005 63.2955 78.8933 63.8914 79.1431C64.4917 79.3928 64.9386 79.6316 65.2322 79.8595ZM73.7475 76.5667V84H72.3345V76.5667H69.791V75.3509H76.291V76.5667H73.7475ZM93.9258 75.3509V84H92.5062V80.1026H88.5234V84H87.1104V75.3509H88.5234V78.8868H92.5062V75.3509H93.9258ZM102.322 80.7073L104.123 75.3509H105.595L102.565 84H101.073L98.0566 75.3509H99.5091L101.316 80.727C101.404 80.9724 101.501 81.29 101.606 81.68C101.711 82.0656 101.783 82.3788 101.823 82.6198C101.875 82.3175 101.956 81.9648 102.066 81.5617C102.18 81.1586 102.265 80.8738 102.322 80.7073ZM116.127 84H114.622L113.761 81.6011H110.448L109.607 84H108.115L111.349 75.318H112.887L116.127 84ZM110.862 80.3787H113.386C112.716 78.4201 112.346 77.3291 112.275 77.1057C112.205 76.8822 112.151 76.6916 112.111 76.5339C112.006 77.0115 111.85 77.5416 111.645 78.1244L110.862 80.3787ZM123.702 76.4419C122.892 76.4419 122.254 76.7289 121.79 77.3028C121.325 77.8768 121.093 78.683 121.093 79.7214C121.093 80.7555 121.314 81.5463 121.757 82.094C122.204 82.6373 122.852 82.909 123.702 82.909C124.298 82.909 125.01 82.7797 125.838 82.5212V83.7371C125.168 83.9912 124.399 84.1183 123.531 84.1183C122.261 84.1183 121.288 83.7349 120.613 82.9681C119.939 82.2014 119.601 81.1038 119.601 79.6754C119.592 78.786 119.754 78.0039 120.087 77.3291C120.42 76.65 120.9 76.1286 121.527 75.7649C122.158 75.3969 122.887 75.2172 123.715 75.226C124.605 75.226 125.422 75.4122 126.167 75.7846L125.654 76.9611C124.909 76.6149 124.259 76.4419 123.702 76.4419ZM141.321 79.8595C141.895 80.2932 142.182 80.8935 142.182 81.6603C142.182 82.4226 141.906 83.0229 141.354 83.4611C140.802 83.8992 140.035 84.1183 139.054 84.1183C138.072 84.1183 137.27 83.9671 136.648 83.6648V82.3241C137.489 82.7228 138.322 82.9221 139.146 82.9221C139.693 82.9221 140.103 82.8192 140.375 82.6132C140.646 82.4029 140.782 82.1247 140.782 81.7786C140.782 81.4324 140.662 81.1498 140.421 80.9307C140.18 80.7073 139.667 80.4378 138.883 80.1223C138.098 79.8025 137.546 79.4366 137.227 79.0248C136.907 78.6129 136.747 78.1222 136.747 77.5526C136.747 76.8296 137.003 76.2622 137.516 75.8504C138.033 75.4341 138.712 75.226 139.553 75.226C140.394 75.226 141.229 75.4078 142.057 75.7715L141.604 76.9282C140.828 76.604 140.142 76.4419 139.547 76.4419C139.1 76.4419 138.756 76.5404 138.515 76.7376C138.274 76.9304 138.153 77.1933 138.153 77.5263C138.153 77.7541 138.199 77.9491 138.291 78.1112C138.396 78.2777 138.554 78.4289 138.764 78.5647C138.979 78.7005 139.384 78.8933 139.98 79.1431C140.581 79.3928 141.027 79.6316 141.321 79.8595ZM151.742 82.7973V84H146.853V75.3509H151.742V76.547H148.266V78.8999H151.525V80.0829H148.266V82.7973H151.742ZM158.032 80.543V84H156.619V75.3509H159.057C160.17 75.3509 160.996 75.559 161.535 75.9752C162.074 76.3915 162.344 77.0246 162.344 77.8746C162.344 78.9481 161.783 79.7149 160.661 80.1749L163.106 84H161.496L159.426 80.543H158.032ZM158.032 76.547V79.3731H159.011C159.66 79.3731 160.133 79.2548 160.431 79.0182C160.733 78.7772 160.885 78.4135 160.885 77.9272C160.885 77.4408 160.727 77.0903 160.411 76.8756C160.1 76.6566 159.618 76.547 158.965 76.547H158.032ZM170.485 80.7073L172.286 75.3509H173.758L170.728 84H169.236L166.22 75.3509H167.672L169.48 80.727C169.567 80.9724 169.664 81.29 169.769 81.68C169.874 82.0656 169.946 82.3788 169.986 82.6198C170.038 82.3175 170.119 81.9648 170.229 81.5617C170.343 81.1586 170.428 80.8738 170.485 80.7073ZM179.317 84H177.904V75.3509H179.317V84ZM188.273 76.4419C187.462 76.4419 186.824 76.7289 186.36 77.3028C185.896 77.8768 185.663 78.683 185.663 79.7214C185.663 80.7555 185.885 81.5463 186.327 82.094C186.774 82.6373 187.423 82.909 188.273 82.909C188.868 82.909 189.58 82.7797 190.409 82.5212V83.7371C189.738 83.9912 188.969 84.1183 188.102 84.1183C186.831 84.1183 185.858 83.7349 185.184 82.9681C184.509 82.2014 184.171 81.1038 184.171 79.6754C184.163 78.786 184.325 78.0039 184.658 77.3291C184.991 76.65 185.471 76.1286 186.097 75.7649C186.728 75.3969 187.458 75.2172 188.286 75.226C189.175 75.226 189.992 75.4122 190.737 75.7846L190.225 76.9611C189.48 76.6149 188.829 76.4419 188.273 76.4419ZM200.169 82.7973V84H195.279V75.3509H200.169V76.547H196.692V78.8999H199.952V80.0829H196.692V82.7973H200.169ZM212.95 84H211.537V75.3509H212.95V84ZM225.435 75.3509V84H223.7L219.447 77.1122H219.401L219.428 77.4934C219.485 78.1945 219.513 78.8648 219.513 79.5045V84H218.231V75.3509H219.947L224.186 82.2058H224.219C224.166 81.0797 224.14 80.3064 224.14 79.8857V75.3509H225.435ZM240.203 76.5667V84H238.79V76.5667H236.246V75.3509H242.746V76.5667H240.203ZM253.004 79.6623C253.004 78.5976 252.792 77.7936 252.367 77.2503C251.942 76.7026 251.309 76.4287 250.468 76.4287C249.626 76.4287 248.989 76.7026 248.555 77.2503C248.121 77.7979 247.904 78.6041 247.904 79.6689C247.904 80.7292 248.119 81.5354 248.548 82.0875C248.982 82.6352 249.62 82.909 250.461 82.909C252.157 82.909 253.004 81.8268 253.004 79.6623ZM253.451 76.3893C254.157 77.1648 254.509 78.2558 254.509 79.6623C254.509 81.0688 254.157 82.1641 253.451 82.9484C252.75 83.7283 251.749 84.1183 250.448 84.1183C249.151 84.1183 248.152 83.7305 247.451 82.955C246.754 82.1795 246.406 81.0775 246.406 79.6491C246.406 78.2208 246.756 77.1254 247.457 76.363C248.158 75.6006 249.155 75.2194 250.448 75.2194C251.745 75.2194 252.746 75.6094 253.451 76.3893ZM269.486 75.3509L267.232 84H265.694L264.228 78.8407C264.171 78.6436 264.09 78.3193 263.985 77.868C263.889 77.4124 263.832 77.1188 263.814 76.9874C263.779 77.2064 263.72 77.5153 263.637 77.9141C263.553 78.3084 263.475 78.6261 263.4 78.867L261.974 84H260.436L259.319 79.6689L258.182 75.3509H259.621L260.857 80.3918C261.054 81.198 261.192 81.9122 261.271 82.5344C261.376 81.7676 261.52 81.0578 261.704 80.405L263.111 75.3509H264.517L265.957 80.4247C266.106 80.9329 266.252 81.6362 266.397 82.5344C266.458 81.9473 266.601 81.2287 266.824 80.3787L268.053 75.3509H269.486ZM280.907 75.3509V84H279.172L274.92 77.1122H274.874L274.9 77.4934C274.957 78.1945 274.986 78.8648 274.986 79.5045V84H273.704V75.3509H275.419L279.659 82.2058H279.691C279.639 81.0797 279.613 80.3064 279.613 79.8857V75.3509H280.907Z" />
<path d="M24.6069 15.5C19.0069 21.9 22.1069 26.6782 24.6069 28.5115C16.6069 25.3115 15.6069 18.1782 16.107 15.0115C17.707 7.41152 24.4403 5.84489 27.607 6.01158C35.607 6.41158 38.2736 13.5116 38.607 17.0115C32.607 11.0115 26.9403 13.6667 24.6069 15.5Z" />
<path d="M10.5251 32.1025C16.1543 38.4768 21.2905 36.015 23.4293 33.7707C19.2299 41.2945 12.0273 41.3716 8.95089 40.4697C1.61872 37.9085 0.928311 31.0299 1.49963 27.9107C2.92201 20.028 10.3053 18.2937 13.8191 18.4118C7.09938 23.593 9.00605 29.5534 10.5251 32.1025Z" />
<path d="M26.563 46.5027C32.0553 40.0101 28.876 35.2843 26.3457 33.493C34.3981 36.559 35.517 43.6746 35.0699 46.8492C33.5971 54.4749 26.8908 56.1537 23.7218 56.0399C15.7163 55.7736 12.9314 48.7191 12.5397 45.2252C18.639 51.1242 24.2606 48.3748 26.563 46.5027Z" />
<path d="M40.7743 30.4752C33.8686 25.5122 29.4084 29.0545 27.8223 31.7182C30.2434 23.4491 37.2485 21.7722 40.4485 21.9674C48.1666 22.834 50.3693 29.3869 50.5059 32.555C50.8721 40.5566 44.0593 43.8894 40.6072 44.5556C46.0065 38.0098 42.8222 32.6227 40.7743 30.4752Z" />
<path d="M115.575 5.44793V62H100.234V38.9666H82.4434V62H67.1021V5.44793H82.4434V26.4186H100.234V5.44793H115.575ZM147.181 47.4323C147.468 44.1377 148.299 39.7545 149.674 34.2826L157.538 5.44793H174.641L156.12 62H138.114L119.679 5.44793H136.868L144.56 34.1107C146.136 40.3847 147.009 44.8252 147.181 47.4323ZM226.973 62H210.257L207.506 51.3857H189.114L186.278 62H169.476L187.911 5.23306H208.323L226.973 62ZM192.294 38.8807H204.326C200.774 25.4732 198.74 17.3657 198.224 14.5581C197.651 18.1105 195.675 26.2181 192.294 38.8807ZM267.685 20.6603C262.729 18.3397 258.417 17.1795 254.75 17.1795C251.083 17.1795 248.232 18.6692 246.198 21.6486C244.164 24.6281 243.147 28.7391 243.147 33.9818C243.147 44.8396 247.287 50.2685 255.566 50.2685C259.348 50.2685 264.132 49.0939 269.919 46.7447V59.6365C265.221 61.7278 259.878 62.7735 253.89 62.7735C245.353 62.7735 238.807 60.2954 234.252 55.3392C229.726 50.383 227.462 43.2353 227.462 33.8959C227.405 28.0802 228.479 22.9521 230.685 18.5116C232.92 14.0425 236.128 10.6047 240.311 8.19818C244.494 5.76306 249.35 4.57415 254.879 4.63144C261.01 4.63144 266.84 5.9636 272.369 8.62791L267.685 20.6603Z" />
</svg>
